<svg width="59" height="59" viewBox="0 0 59 59" fill="none" xmlns="http://www.w3.org/2000/svg">
<circle cx="29.5" cy="29.5" r="29.5" fill="white"/>
<path d="M25.2148 37.1181L34.5476 46.3873C35.0153 46.8522 35.7776 46.8173 36.2022 46.313C37.9473 44.24 41.9194 39.028 41.9194 34.5292L27.596 30.7667L25.2148 37.1181Z" fill="url(#paint0_linear)"/>
<path d="M25.0762 21.8971L34.6105 12.3628C34.9948 11.9785 35.6165 11.9838 35.9874 12.3807C37.4217 13.9144 40.6789 17.8892 41.9537 23.5195L25.49 27.8338L25.0762 21.8971Z" fill="url(#paint1_linear)"/>
<path d="M28.3887 26.5563L45.1229 22.0457C45.6577 21.9015 46.2051 22.2159 46.3421 22.7526C46.6485 23.9592 47.0955 26.2705 47.0955 29.4901C47.0955 32.7124 46.6333 35.0246 46.3162 36.2304C46.1755 36.7661 45.6255 37.0751 45.0916 36.9273L25.041 31.3543L28.3887 26.5563Z" fill="url(#paint2_linear)"/>
<path opacity="0.34" d="M25.9195 22.3333H25.0801L25.2145 37.1182L26.4686 38.3634C27.1862 38.1313 27.7085 37.4648 27.7085 36.6693V24.1214C27.7085 23.1342 26.9076 22.3333 25.9195 22.3333Z" fill="black"/>
<path opacity="0.05" d="M25.2141 37.1181L29.0725 40.9505C30.3607 40.5017 31.2915 39.2896 31.2915 37.8482V22.9434C31.2915 21.1221 29.8151 19.6458 27.9939 19.6458H27.3274L25.0762 21.897L25.2141 37.1181Z" fill="black"/>
<path opacity="0.07" d="M25.2141 37.1182L28.3245 40.207C29.6646 40.001 30.6948 38.8525 30.6948 37.4541V22.74C30.6948 21.1956 29.4434 19.9442 27.8989 19.9442H27.0291L25.0762 21.8971L25.2141 37.1182Z" fill="black"/>
<path opacity="0.09" d="M25.2141 37.1182L27.4654 39.3542H27.8031C29.0698 39.3542 30.0964 38.3275 30.0964 37.0608V22.5367C30.0964 21.27 29.0698 20.2433 27.8031 20.2433H26.7299L25.0762 21.8971L25.2141 37.1182Z" fill="black"/>
<path d="M27.709 38.4584H13.3757C12.3858 38.4584 11.584 37.6566 11.584 36.6667V22.3334C11.584 21.3435 12.3858 20.5417 13.3757 20.5417H27.709C28.6989 20.5417 29.5007 21.3435 29.5007 22.3334V36.6667C29.5007 37.6566 28.6989 38.4584 27.709 38.4584Z" fill="url(#paint3_linear)"/>
<path d="M23.9674 24.6795C23.5419 24.4484 23.0106 24.606 22.7795 25.0307L20.5874 29.1309L18.3039 25.0307C18.0728 24.6051 17.5407 24.4484 17.116 24.6795C16.6905 24.9106 16.5338 25.4427 16.7649 25.8674L19.5187 30.8697V33.4524C19.5187 33.9908 19.9558 34.4279 20.4942 34.4279C21.0326 34.4279 21.4698 33.9908 21.4698 33.4524V31.0614L24.3194 25.8674C24.5497 25.4418 24.3929 24.9106 23.9674 24.6795Z" fill="white"/>
<defs>
<linearGradient id="paint0_linear" x1="31.4767" y1="43.8817" x2="34.2126" y2="34.1431" gradientUnits="userSpaceOnUse">
<stop stop-color="#0358A7"/>
<stop offset="0.964" stop-color="#0358A7"/>
</linearGradient>
<linearGradient id="paint1_linear" x1="29.9755" y1="15.6971" x2="33.2435" y2="24.1098" gradientUnits="userSpaceOnUse">
<stop stop-color="#28A8EA"/>
<stop offset="1" stop-color="#28A8EA"/>
</linearGradient>
<linearGradient id="paint2_linear" x1="35.9594" y1="33.7758" x2="35.542" y2="45.4565" gradientUnits="userSpaceOnUse">
<stop stop-color="#0F78D4"/>
<stop offset="1" stop-color="#0F78D4"/>
</linearGradient>
<linearGradient id="paint3_linear" x1="12.1466" y1="21.1043" x2="29.326" y2="38.2837" gradientUnits="userSpaceOnUse">
<stop stop-color="#1784D9"/>
<stop offset="1" stop-color="#0B65C9"/>
</linearGradient>
</defs>
</svg>
