<svg width="59" height="59" viewBox="0 0 59 59" fill="none" xmlns="http://www.w3.org/2000/svg">
<circle cx="29.5" cy="29.5" r="29.5" fill="white"/>
<path d="M24.6997 11.0047C23.9464 11.0505 23.2786 11.3318 22.8503 11.7819C22.4846 12.1664 22.3252 12.4008 22.1804 12.7655C22.0116 13.1906 21.9334 13.6709 21.9314 14.2867C21.9303 14.5816 21.9397 14.7378 21.9751 15.0369C22.0866 15.9652 22.3856 17.2218 22.8837 18.8451C23.0462 19.3764 23.2973 20.1547 23.7203 21.4342C24.4476 23.6368 24.8362 24.8475 25.2259 26.127C25.2999 26.3729 25.3613 26.5781 25.3613 26.5833C25.3613 26.5885 25.3322 26.5719 25.2967 26.5448C25.0956 26.3979 24.8102 26.2426 24.5716 26.1499C24.2392 26.0207 24.01 25.955 23.7985 25.93C23.6182 25.9082 23.1671 25.9092 23.0181 25.9311C22.4398 26.0155 21.8824 26.3322 21.25 26.9365C20.8071 27.3595 20.5164 27.7336 20.2966 28.1597C20.1091 28.5234 20.0122 28.8432 19.984 29.1954C19.9642 29.434 19.9976 29.6236 20.1289 30.03C20.1632 30.1362 20.2112 30.2884 20.2351 30.3686C20.306 30.6093 20.3831 30.8124 20.5633 31.2386C20.7019 31.5647 20.778 31.7522 20.7728 31.7564C20.7707 31.7585 20.6592 31.7929 20.5258 31.8325C19.9882 31.9908 19.6069 32.1357 19.2193 32.3274C18.3826 32.7431 17.9377 33.1838 17.5512 33.984C17.2636 34.58 17.0948 35.2374 17.0188 36.0626C16.9937 36.3356 16.9937 37.0222 17.0188 37.2921C17.0959 38.1183 17.2657 38.8872 17.5835 39.8552C17.7793 40.448 17.8314 40.5689 18.0825 41.0044C18.7723 42.2005 19.6819 43.2862 20.7509 44.1895C21.3 44.6532 21.8709 45.0647 22.4179 45.3898C23.8495 46.241 25.477 46.7693 27.2055 46.9443C28.186 47.0444 29.3185 47.0329 30.3521 46.9141C31.4659 46.7849 32.5588 46.5213 33.5466 46.1431C34.9136 45.619 36.167 44.8616 37.2964 43.878C37.6184 43.5977 38.1289 43.0986 38.4175 42.7829C40.1898 40.845 41.3057 38.4986 41.7662 35.7407C42.0861 33.8256 42.0767 31.5699 41.7443 30.0091C41.4724 28.7359 41.065 27.967 40.3388 27.3564C39.772 26.8803 38.9645 26.5312 38.0987 26.3874C38.0414 26.3781 37.9935 26.3687 37.9914 26.3676C37.9893 26.3656 38.0518 26.1895 38.1299 25.9748C38.6822 24.4714 39.102 23.2628 40.2294 19.9391C40.3232 19.663 40.5076 19.1285 40.567 18.9628C40.666 18.6836 40.8879 17.8782 41.0317 17.277C41.3328 16.0183 41.462 15.091 41.4172 14.5201C41.3651 13.8626 41.1484 13.2427 40.7837 12.7082C40.6618 12.529 40.6034 12.4623 40.4722 12.3487C39.9679 11.9143 39.3469 11.6934 38.6228 11.6913C38.3415 11.6913 38.1998 11.7236 37.9528 11.8434C37.6882 11.9716 37.4756 12.1331 37.1756 12.4321C36.9578 12.6498 36.789 12.8436 36.5921 13.1041C35.3949 14.6878 34.054 17.5645 32.6026 21.6634C32.5411 21.8385 32.4411 22.1167 32.3807 22.2834C32.3203 22.449 32.2119 22.7585 32.139 22.971C31.9191 23.6097 31.8097 23.9035 31.718 24.1036L31.6784 24.189L31.6357 24.0588C31.6118 23.9879 31.5221 23.6972 31.4357 23.4138C31.1929 22.6209 31.0293 22.1333 30.8262 21.6061C30.7824 21.4915 30.6928 21.2456 30.6282 21.0591C29.0778 16.6039 27.6869 13.5751 26.5106 12.0956C26.297 11.8267 26.0313 11.5506 25.8406 11.3975C25.5864 11.1922 25.3155 11.0547 25.0956 11.0161C24.9987 11.0005 24.8487 10.9953 24.6997 11.0047ZM24.9289 12.6405C25.2165 12.7322 25.4843 12.9801 25.7562 13.4084C25.7969 13.4719 25.8562 13.5605 25.8885 13.6053C26.099 13.8991 26.3439 14.4221 26.6502 15.2348C26.7825 15.5849 26.9117 15.9433 27.2409 16.8758C27.4045 17.3395 28.1339 19.3796 28.8611 21.4082C29.5884 23.4368 30.1812 25.0976 30.1802 25.0996C30.1781 25.1017 30.0749 25.0892 29.9489 25.0715C29.8238 25.0538 29.5811 25.0225 29.4092 25.0027C29.0362 24.9579 28.9486 24.9444 28.784 24.9017L28.659 24.8694L28.2474 24.8756C27.9505 24.8798 27.8098 24.886 27.7411 24.8975C27.6421 24.9142 27.5212 24.9486 27.4743 24.9725C27.4577 24.9809 27.4108 24.9923 27.3691 24.9975C27.3274 25.0027 27.2712 25.0163 27.2441 25.0277C27.1743 25.058 27.0867 25.1444 27.0253 25.2455L26.9721 25.333L26.9596 25.2976C26.9523 25.2788 26.869 25.059 26.7731 24.81C25.4551 21.3727 24.6018 18.9367 24.0027 16.8998C23.6943 15.8527 23.5307 15.165 23.4536 14.5993C23.4265 14.3919 23.415 13.9783 23.4338 13.8314C23.4786 13.4719 23.6234 13.1948 23.91 12.9218C24.0485 12.7905 24.1683 12.7124 24.3069 12.6655C24.4476 12.6165 24.4986 12.6103 24.6893 12.6134C24.8268 12.6165 24.8685 12.6207 24.9289 12.6405ZM38.9531 13.4375C39.1239 13.4834 39.2469 13.5501 39.3907 13.672C39.4605 13.7314 39.4855 13.7616 39.5396 13.8522C39.7053 14.1304 39.7845 14.3794 39.8137 14.7139C39.8366 14.9837 39.8033 15.2192 39.6605 15.7902C39.4751 16.5341 38.9593 18.297 38.7655 18.8503C38.6988 19.042 38.5175 19.5692 38.3623 20.0224C37.6007 22.2531 37.3579 22.9512 36.9609 24.0442C36.8015 24.4849 36.4691 25.3757 36.3066 25.8019C36.2847 25.8582 36.2618 25.904 36.2555 25.904C36.2493 25.904 35.5533 25.7769 34.7094 25.6206C33.2486 25.3497 33.1746 25.3351 33.1788 25.3153C33.1809 25.3039 33.755 23.6816 34.4541 21.7103C35.1532 19.739 35.7617 18.0209 35.8065 17.8917C36.2212 16.6935 36.7109 15.5912 37.2547 14.6305C37.6673 13.9001 38.0497 13.5282 38.4894 13.4261C38.5696 13.4073 38.8697 13.4146 38.9531 13.4375ZM30.5605 26.5125C32.4369 26.6073 34.0352 26.8417 35.7909 27.2804C36.9828 27.5773 37.783 27.843 38.4248 28.1545C38.7749 28.3254 38.9447 28.4296 39.2354 28.6505C39.5522 28.8922 39.7376 29.1256 39.8856 29.4705C40.0023 29.7445 40.0648 30.0404 40.1606 30.7801C40.2982 31.8345 40.3169 33.0609 40.2138 34.2393C39.9585 37.1473 38.9666 39.5707 37.2079 41.5795C35.8002 43.1882 34.1717 44.2718 32.3244 44.8313C31.3534 45.1252 30.3698 45.271 29.2268 45.2908C27.5879 45.319 26.1146 45.0512 24.7008 44.4698C23.5828 44.0093 22.7253 43.4675 21.7667 42.6173C21.5479 42.4235 20.8947 41.7733 20.6769 41.5327C20.0799 40.8731 19.5881 40.0771 19.1234 39.0185C19.0213 38.7831 18.8952 38.4142 18.8077 38.0943C18.567 37.2098 18.5368 36.3221 18.7202 35.5886C18.8671 35.0051 19.1297 34.5321 19.5266 34.1351C19.9465 33.7152 20.407 33.4891 20.8499 33.4849C20.9801 33.4839 20.9957 33.486 21.0687 33.5141C21.2437 33.5797 21.4583 33.71 21.7782 33.9434C21.9449 34.0653 21.997 34.1163 22.3408 34.5008C22.5273 34.7081 23.5515 35.9095 23.6953 36.0887C24.111 36.6055 24.5226 37.1983 24.8893 37.8057C25.1602 38.2548 25.3249 38.6737 25.3624 39.006C25.3707 39.0883 25.3697 39.1165 25.3561 39.1696C25.3217 39.3061 25.1915 39.503 25.029 39.6666C24.8081 39.8885 24.6049 39.9885 24.3298 40.0104C23.663 40.0636 22.9024 39.6583 22.1293 38.8372C21.7907 38.4778 21.3771 37.9485 21.1624 37.5994C20.9061 37.1827 20.5248 36.6628 20.3602 36.5054L20.3164 36.4638L20.2716 36.5148C20.157 36.644 20.1122 36.8003 20.0934 37.1337C20.0872 37.2577 20.0851 37.265 20.0518 37.315C19.9882 37.4088 19.9799 37.4567 19.9809 37.7141C19.9809 37.8672 19.9872 37.986 19.9997 38.0725C20.0882 38.7247 20.3977 39.3499 20.9738 40.0427C21.2177 40.3355 21.5219 40.6543 21.7303 40.8335C22.6076 41.5889 23.4088 42.0119 24.2173 42.1463C24.8456 42.2516 25.3978 42.1911 25.8667 41.9661C26.1178 41.8452 26.3043 41.7139 26.5033 41.517C26.572 41.4483 26.6585 41.3545 26.695 41.3086C26.9284 41.0127 27.0899 40.672 27.1576 40.3313C27.1961 40.1427 27.2055 40.0073 27.2055 39.6843C27.2055 39.3634 27.2024 39.3415 27.1378 39.131C27.117 39.0623 27.0972 38.9748 27.094 38.9373L27.0878 38.8695L27.168 38.8779C27.2201 38.8831 27.2909 38.9018 27.3733 38.9331L27.4983 38.98H27.8015C28.1328 38.98 28.1484 38.9779 28.3172 38.9133C28.3672 38.8935 28.435 38.8747 28.4662 38.8706C28.5465 38.8602 28.6246 38.8154 28.7246 38.7237L28.8101 38.6445V38.9508C28.8101 40.4314 28.9841 41.3837 29.3821 42.0807C29.5363 42.3485 29.7144 42.5912 29.8926 42.7767C30.2343 43.1289 30.5855 43.306 31.0168 43.3414L31.1023 43.3487V43.0914C31.1023 42.8361 31.1023 42.8319 31.0658 42.6652C31.0241 42.4693 30.9262 42.0974 30.7897 41.616C30.574 40.8523 30.4834 40.4345 30.4334 39.9698C30.4136 39.7833 30.4167 39.3186 30.4386 39.1363C30.499 38.6476 30.6365 38.1631 30.8689 37.6224C31.0147 37.2827 31.3065 36.7211 31.5086 36.3908C32.0358 35.5271 32.7526 34.754 33.5424 34.1924C33.6299 34.1309 33.756 34.0413 33.8216 33.9944C34.1821 33.736 34.4541 33.5756 34.8636 33.3766C35.1397 33.2422 35.3199 33.1651 35.7023 33.0171C36.1857 32.8296 36.5963 32.6431 36.8744 32.4837C37.0755 32.368 37.3277 32.193 37.3933 32.1221C37.4162 32.0971 37.4162 32.0929 37.4069 31.9856C37.3881 31.7877 37.3443 31.6408 37.2443 31.4313C37.1922 31.3198 37.1714 31.2875 37.1339 31.2573C37.0339 31.175 36.8734 31.1063 36.7327 31.0833C36.6859 31.076 36.3274 31.0708 35.6815 31.0677C34.7635 31.0625 34.5124 31.0573 33.9936 31.0302C31.9691 30.9239 30.1645 30.5874 29.1643 30.1289C28.1651 29.6726 27.664 28.9193 27.664 27.8732C27.664 27.6273 27.689 27.4502 27.7483 27.2637C27.8192 27.0428 27.9526 26.8501 28.112 26.7406C28.2756 26.6292 28.5444 26.5427 28.833 26.5093C28.8861 26.5031 28.9445 26.4958 28.9611 26.4937C29.0362 26.4833 30.2677 26.4979 30.5605 26.5125ZM23.935 27.993C24.3225 28.0441 24.658 28.2035 24.9467 28.4754C24.9883 28.514 25.0602 28.5765 25.1061 28.614C25.5322 28.9578 26.0344 29.5778 26.4522 30.2748C26.5043 30.3602 26.5981 30.5103 26.6606 30.6082C27.2597 31.5366 27.8036 32.6181 28.2943 33.859C28.7142 34.9196 28.8997 35.5062 28.9205 35.8365C28.9403 36.1387 28.7663 36.5377 28.5256 36.7409C28.3235 36.9118 28.062 37.017 27.8129 37.0285C27.5327 37.041 27.3472 36.9962 26.6481 36.7451C26.4366 36.669 26.2428 36.6002 26.2188 36.593C26.1542 36.5742 25.9511 36.394 25.6062 36.048C25.2155 35.6563 24.98 35.3916 24.5747 34.8853C24.1048 34.2976 23.7318 33.7829 23.3796 33.2338C23.0598 32.7358 22.5305 31.8293 22.4575 31.6574C22.147 30.9177 21.9678 30.3602 21.9345 30.0195C21.9147 29.8237 21.9439 29.5674 22.0085 29.384C22.0981 29.1298 22.2346 28.936 22.5367 28.6338C22.9337 28.2379 23.2046 28.0545 23.4859 27.992C23.5651 27.9743 23.8026 27.9753 23.935 27.993ZM29.3466 31.9846C29.7842 32.1336 30.4104 32.2659 31.4148 32.4201C31.9712 32.5066 32.5328 32.5618 32.8433 32.5618H32.9381L32.612 32.8087C31.6576 33.5287 31.4919 33.6641 31.1742 33.9851C30.7074 34.4581 30.4657 34.7238 30.2448 35.0082C30.1927 35.0759 30.1854 35.0822 30.1802 35.0603C30.1781 35.0468 30.1583 34.9561 30.1374 34.8592C29.9812 34.1163 29.8499 33.7381 29.3779 32.666C29.1976 32.2555 29.108 32.0471 29.0591 31.9242L29.0403 31.8752L29.1258 31.9064C29.1726 31.9242 29.2727 31.9596 29.3466 31.9846Z" fill="black"/>
</svg>
