<svg width="59" height="59" viewBox="0 0 59 59" fill="none" xmlns="http://www.w3.org/2000/svg">
<circle cx="29.5" cy="29.5" r="29.5" fill="black"/>
<path d="M20.4359 15.1114C19.477 15.3192 18.638 15.9904 18.2146 16.8933C18.0068 17.3328 17.9988 17.4287 17.9748 18.811L17.9429 20.2733L17.5993 20.4251C17.016 20.6808 17 20.7687 17 23.0859C17 24.9797 17.008 25.1235 17.1598 25.3712C17.2557 25.531 17.4555 25.6988 17.6392 25.7707L17.9589 25.9066V27.8722C17.9589 30.0536 18.0068 30.3732 18.4782 31.1004C18.7899 31.5878 19.2134 31.9394 19.8526 32.243L20.316 32.4588L23.0967 32.4827L25.8694 32.5067V32.9462C25.8694 33.3697 25.8614 33.3777 25.6377 33.3777C25.4299 33.3777 24.7188 33.6094 24.1754 33.8651C24.0476 33.921 23.9517 34.0089 23.9517 34.0728C23.9517 34.1367 23.8558 34.1767 23.68 34.1767C23.4163 34.1767 23.4004 34.1927 23.3764 34.4723C23.3524 34.752 23.3285 34.768 22.9689 34.8639C21.9461 35.1276 21.3468 35.8867 21.2589 37.0613C21.219 37.5487 21.179 37.7165 21.0831 37.7484C21.0112 37.7724 20.8035 37.9402 20.6197 38.116L20.2761 38.4436V39.4424V40.4412L20.6117 40.7848L20.9473 41.1284H21.7623C22.7611 41.1284 22.833 41.0725 22.833 40.3453V39.8499H23.1127H23.3924V38.8991C23.3924 37.8763 23.3684 37.8044 22.9529 37.7564C22.7212 37.7325 22.7132 37.7245 22.6892 37.2291C22.6652 36.7656 22.6812 36.7097 22.905 36.4939C23.2645 36.1344 23.3924 36.1743 23.3924 36.6537V37.0533H23.712H24.0316V38.2598V39.4664L24.4311 39.9219L24.8307 40.3853V40.9846V41.5919L24.4152 41.6478C23.8478 41.7277 23.4563 41.8715 23.0328 42.1672L22.6732 42.4149V43.0541V43.6854L25.8934 43.6694L29.1056 43.6454L29.1215 42.4468L29.1295 41.2483H29.5211H29.9046L29.9286 42.4628L29.9526 43.6854H33.1807H36.4168V43.0941C36.4168 42.5267 36.4089 42.4948 36.1612 42.279C35.8016 41.9754 35.1783 41.7117 34.6829 41.6478L34.2594 41.5919V40.9526V40.3214L34.6589 39.8979L35.0585 39.4744V38.2678V37.0533H35.3781H35.6977V36.6537C35.6977 36.2223 35.7776 36.1663 36.0653 36.3741C36.305 36.5419 36.4328 36.8935 36.4009 37.3409C36.3769 37.7245 36.3689 37.7325 36.0972 37.7724C35.6977 37.8283 35.6098 38.0521 35.6338 39.0109L35.6578 39.81L35.9614 39.834L36.257 39.8579V40.3613C36.257 41.0645 36.3449 41.1284 37.3038 41.1284H38.0629L38.3985 40.7848L38.7341 40.4412V39.4264V38.4037L38.4304 38.1C38.2626 37.9322 38.0549 37.7804 37.967 37.7564C37.8312 37.7325 37.8072 37.6366 37.7672 37.0133C37.7433 36.5898 37.6714 36.1903 37.5914 36.0465C37.2638 35.4152 36.6566 34.9518 36.0413 34.8479C35.7057 34.8 35.6977 34.792 35.6977 34.4883C35.6977 34.1847 35.6897 34.1767 35.418 34.1767C35.2422 34.1767 35.1384 34.1367 35.1384 34.0728C35.1384 33.945 33.9478 33.4416 33.5003 33.3856L33.1807 33.3377V32.9382V32.5387L35.8975 32.4987C38.4864 32.4588 38.6382 32.4508 39.0697 32.275C39.9566 31.9154 40.6039 31.2042 40.8915 30.2774C41.0353 29.8299 41.0513 29.5262 41.0513 27.8323L41.0593 25.9066L41.3949 25.7468C41.9942 25.4511 42.0182 25.3392 41.9942 22.9741L41.9702 20.9285L41.7705 20.7048C41.6586 20.5929 41.4508 20.4411 41.315 20.3851L41.0513 20.2733V19.0507C41.0513 18.2037 41.0114 17.6844 40.9315 17.3568C40.6278 16.1981 39.661 15.3112 38.4544 15.0875C37.7592 14.9596 21.0352 14.9756 20.4359 15.1114ZM38.8779 16.4219C39.3414 16.6696 39.7888 17.125 40.0206 17.6045L40.2123 17.996V23.6692V29.3425L40.0206 29.734C39.7649 30.2534 39.3014 30.7088 38.79 30.9486L38.3745 31.1403H29.5051H20.6357L20.2282 30.9486C19.6528 30.6769 19.2773 30.3253 18.9976 29.766L18.7579 29.2785V23.6772V18.0759L18.9497 17.6684C19.2214 17.0931 19.5729 16.7175 20.1403 16.4379L20.6277 16.1981L29.577 16.2141L38.5343 16.2381L38.8779 16.4219Z" fill="white"/>
<path d="M24.9898 22.6864C24.5423 22.982 24.3106 23.5414 24.3186 24.3085C24.3186 25.0596 24.5263 25.539 24.9818 25.8426C25.4452 26.1543 25.8527 26.0584 26.2283 25.547C26.484 25.2034 26.5879 24.8278 26.5879 24.2765C26.5879 23.6772 26.444 23.2697 26.1164 22.9021C25.7409 22.4866 25.3893 22.4227 24.9898 22.6864Z" fill="#2A90E4"/>
<path d="M33.0841 22.6783C32.4449 23.0858 32.2052 24.4042 32.6207 25.2832C32.9403 25.9784 33.4996 26.2021 34.019 25.8425C34.6742 25.403 34.898 24.0926 34.4585 23.2376C34.1229 22.5584 33.5955 22.3507 33.0841 22.6783Z" fill="#2A90E4"/>
</svg>
