<svg width="15" height="15" viewBox="0 0 15 15" fill="none" xmlns="http://www.w3.org/2000/svg">
<path d="M9.60621 7.42969C9.59131 7.27558 9.52909 7.12985 9.42808 7.01251L6.72809 3.86251C6.66521 3.78406 6.5872 3.71905 6.4987 3.67135C6.4102 3.62365 6.31301 3.59422 6.21291 3.58483C6.11281 3.57543 6.01185 3.58625 5.91601 3.61665C5.82018 3.64705 5.73144 3.69641 5.65506 3.76179C5.57868 3.82716 5.51622 3.90723 5.4714 3.99723C5.42657 4.08722 5.4003 4.18531 5.39414 4.28566C5.38798 4.38601 5.40206 4.48657 5.43553 4.58137C5.46901 4.67618 5.52121 4.76328 5.58902 4.83751L7.87183 7.50001L5.58902 10.1625C5.52121 10.2367 5.46901 10.3238 5.43553 10.4186C5.40206 10.5134 5.38798 10.614 5.39414 10.7144C5.4003 10.8147 5.42657 10.9128 5.4714 11.0028C5.51622 11.0928 5.57868 11.1729 5.65506 11.2382C5.73144 11.3036 5.82018 11.353 5.91601 11.3834C6.01185 11.4138 6.11281 11.4246 6.21291 11.4152C6.31301 11.4058 6.4102 11.3764 6.4987 11.3287C6.5872 11.281 6.66521 11.216 6.72809 11.1375L9.42808 7.98751C9.49366 7.91123 9.54323 7.82253 9.57383 7.7267C9.60443 7.63087 9.61544 7.52986 9.60621 7.42969Z" fill="white"/>
</svg>
