<svg width="59" height="59" viewBox="0 0 59 59" fill="none" xmlns="http://www.w3.org/2000/svg">
<circle cx="29.5" cy="29.5" r="29.5" fill="#007DC1"/>
<path d="M15.6527 26.1265C13.0812 26.1265 11 28.2078 11 30.7793C11 33.3508 13.0812 35.432 15.6527 35.432C18.2242 35.432 20.3055 33.3508 20.3055 30.7793C20.3055 28.2078 18.2242 26.1265 15.6527 26.1265ZM15.6527 33.1103C14.367 33.1103 13.3217 32.065 13.3217 30.7793C13.3217 29.4935 14.367 28.4483 15.6527 28.4483C16.9385 28.4483 17.9837 29.4935 17.9837 30.7793C17.9837 32.065 16.9385 33.1103 15.6527 33.1103Z" fill="white"/>
<path d="M23.8289 32.3425C23.8289 31.9725 24.2729 31.7968 24.5319 32.0558C25.6974 33.2398 27.6214 35.2748 27.6307 35.284C27.6584 35.3118 27.6862 35.358 27.7972 35.395C27.8434 35.4135 27.9174 35.4135 28.0007 35.4135H30.1004C30.4797 35.4135 30.5907 34.9788 30.4149 34.7568L26.9369 31.1955L26.7519 31.0105C26.3542 30.5388 26.4004 30.3538 26.8537 29.8728L29.6102 26.7925C29.7859 26.5705 29.6749 26.145 29.2864 26.145H27.3809C27.3069 26.145 27.2514 26.145 27.1959 26.1635C27.0849 26.2005 27.0387 26.2375 27.0109 26.2745C27.0017 26.2838 25.4754 27.9303 24.5319 28.9385C24.2729 29.216 23.8104 29.031 23.8104 28.6518V23.37C23.8104 23.1018 23.5884 23 23.4127 23H21.8587C21.5904 23 21.4609 23.1758 21.4609 23.333V35.0435C21.4609 35.3118 21.6829 35.3858 21.8679 35.3858H23.4219C23.6624 35.3858 23.8197 35.21 23.8197 35.0343V34.914V32.3425H23.8289Z" fill="white"/>
<path d="M36.521 34.988L36.3545 33.434C36.336 33.2213 36.1325 33.0733 35.9197 33.1103C35.7995 33.1288 35.6792 33.138 35.559 33.138C34.3195 33.138 33.3112 32.1668 33.2372 30.9365C33.2372 30.8995 33.2372 30.8533 33.2372 30.807V28.9015C33.2372 28.6517 33.4222 28.4483 33.672 28.4483H35.7532C35.9012 28.4483 36.1232 28.3187 36.1232 28.0505V26.5798C36.1232 26.293 35.9382 26.145 35.7717 26.145H33.672C33.4315 26.145 33.2372 25.9693 33.228 25.7288V23.37C33.228 23.222 33.117 23 32.8302 23H31.2855C31.0913 23 30.9062 23.1203 30.9062 23.3608C30.9062 23.3608 30.9062 30.8995 30.9062 30.9365C30.971 33.4525 33.0337 35.4597 35.559 35.4597C35.7717 35.4597 35.9752 35.4412 36.1787 35.4135C36.4007 35.3857 36.5487 35.2008 36.521 34.988Z" fill="white"/>
<path d="M47.7321 33.0362C46.4186 33.0362 46.2151 32.5644 46.2151 30.7977C46.2151 30.7884 46.2151 30.7884 46.2151 30.7792V26.5334C46.2151 26.3854 46.1041 26.1357 45.8081 26.1357H44.2541C44.0599 26.1357 43.8471 26.2929 43.8471 26.5334V26.7277C43.1719 26.3392 42.3856 26.1172 41.5531 26.1172C38.9816 26.1172 36.9004 28.1984 36.9004 30.7699C36.9004 33.3414 38.9816 35.4227 41.5531 35.4227C42.7094 35.4227 43.7639 34.9972 44.5779 34.3034C45.0126 34.9694 45.7156 35.4134 46.8164 35.4227C47.0014 35.4227 48.0004 35.4597 48.0004 34.9879V33.3322C48.0004 33.1934 47.8894 33.0362 47.7321 33.0362ZM41.5624 33.1102C40.2766 33.1102 39.2314 32.0649 39.2314 30.7792C39.2314 29.4934 40.2766 28.4482 41.5624 28.4482C42.8481 28.4482 43.8934 29.4934 43.8934 30.7792C43.8841 32.0649 42.8389 33.1102 41.5624 33.1102Z" fill="white"/>
</svg>
