<svg width="59" height="59" viewBox="0 0 59 59" fill="none" xmlns="http://www.w3.org/2000/svg">
<circle cx="29.5" cy="29.5" r="29.5" fill="#22A4F2"/>
<path fill-rule="evenodd" clip-rule="evenodd" d="M17.7718 30.07C17.7718 31.8624 16.443 33.2006 14.6436 33.2006C12.8501 33.2006 11.5273 31.8624 11.5273 30.07C11.5273 28.2776 12.8501 26.9395 14.6436 26.9395C16.443 26.9395 17.7718 28.2776 17.7718 30.07ZM13.1123 30.07C13.1123 31.0337 13.7677 31.709 14.6436 31.709C15.5254 31.709 16.1808 31.0337 16.1808 30.07C16.1808 29.1063 15.5254 28.4311 14.6436 28.4311C13.7677 28.4311 13.1123 29.1063 13.1123 30.07ZM21.2515 33.2006C19.8036 33.2006 18.5165 32.3903 18.5165 30.5121V27.099H20.0717V30.3708C20.0717 31.3222 20.5781 31.709 21.2515 31.709C21.9188 31.709 22.4311 31.3222 22.4311 30.3708V27.099H23.9804V30.5121C23.9804 32.3903 22.6993 33.2006 21.2515 33.2006ZM30.5465 29.4239V33.2113H28.9914V29.9395C28.9914 29.074 28.5802 28.6074 27.8652 28.6074C27.1979 28.6074 26.6438 29.0495 26.6438 29.9518V33.2113H25.0886V27.2632H26.602V27.963C27.0132 27.3306 27.6388 27.1036 28.3002 27.1036C29.611 27.1036 30.5465 28.0427 30.5465 29.4239ZM40.3322 33.2113V32.3903C39.951 32.8753 39.3969 33.2006 38.6044 33.2006C37.0076 33.2006 35.81 31.8563 35.81 30.07C35.81 28.2838 37.0076 26.9395 38.6044 26.9395C39.3969 26.9395 39.951 27.2648 40.3322 27.7559V27.099H41.8518V33.2113H40.3322ZM37.4008 30.07C37.4008 30.9786 37.9788 31.709 38.8904 31.709C39.7783 31.709 40.3799 31.0092 40.3799 30.07C40.3799 29.1309 39.7783 28.4311 38.8904 28.4311C37.9788 28.4311 37.4008 29.1616 37.4008 30.07Z" fill="white"/>
<path fill-rule="evenodd" clip-rule="evenodd" d="M42.6855 33.1762H44.2842V27.1641H42.6855V33.1762Z" fill="white"/>
<path fill-rule="evenodd" clip-rule="evenodd" d="M51 29.3225V33.1952H49.45V29.8497C49.45 28.9648 49.0402 28.4877 48.3278 28.4877C47.6627 28.4877 47.1105 28.9397 47.1105 29.8624V33.1952H45.5605V27.1132H47.0689V27.8287C47.4787 27.1822 48.1022 26.95 48.7612 26.95C50.0678 26.95 51 27.9103 51 29.3225ZM9.54983 26.3788C9.54983 25.8077 9.77547 25.5252 10.2267 25.5252C10.7696 25.5252 11.3452 25.7042 11.3452 25.7042V24.2668C10.9955 24.1056 10.5819 24 10.0605 24C8.71849 24 8 24.9352 8 26.36V27.1132V28.5693V30.151V33.1951H9.54983V28.5693H11.3372V27.1132H9.54983V26.3788ZM35.2224 31.3305C35.1744 31.3591 34.551 31.6628 33.9992 31.6628C33.5242 31.6628 33.1381 31.3803 33.1381 30.6271V28.4053H35.2224V27.9793V26.9491H33.1381V25.1414H31.5885V26.0341V26.9491V28.4053V28.883V30.7589C31.5885 32.3407 32.3127 33.1879 33.7439 33.1879C34.339 33.1879 34.813 33.0432 35.2224 32.8205V31.3305Z" fill="white"/>
<path fill-rule="evenodd" clip-rule="evenodd" d="M42.6855 26.1634H44.2842V24.4934H42.6855V26.1634Z" fill="white"/>
</svg>
