<svg width="59" height="59" viewBox="0 0 59 59" fill="none" xmlns="http://www.w3.org/2000/svg">
<circle cx="29.5" cy="29.5" r="29.5" fill="#286EFA"/>
<path d="M39.4692 30.9835C39.4692 31.2318 39.3714 31.4699 39.1971 31.6455C39.0229 31.821 38.7866 31.9197 38.5403 31.9197C38.2939 31.9197 38.0576 31.821 37.8834 31.6455C37.7092 31.4699 37.6113 31.2318 37.6113 30.9835V22.6196C37.6113 22.3713 37.7092 22.1331 37.8834 21.9576C38.0576 21.782 38.2939 21.6834 38.5403 21.6834C38.7866 21.6834 39.0229 21.782 39.1971 21.9576C39.3714 22.1331 39.4692 22.3713 39.4692 22.6196V30.9835ZM39.1467 36.7786C39.0239 36.9025 35.5691 39.8039 29.2351 39.8039C22.9012 39.8039 19.4694 36.9179 19.3235 36.7941C19.2316 36.716 19.1559 36.6204 19.1007 36.5127C19.0455 36.405 19.012 36.2874 19.002 36.1667C18.992 36.0459 19.0058 35.9244 19.0425 35.809C19.0792 35.6936 19.1382 35.5866 19.216 35.4942C19.3764 35.3073 19.6036 35.1918 19.8481 35.173C20.0926 35.1541 20.3345 35.2335 20.5212 35.3937C20.5749 35.4324 23.6613 37.9547 29.2275 37.9547C34.7936 37.9547 37.903 35.4169 37.9337 35.3937C38.1225 35.2349 38.3652 35.1566 38.6104 35.1754C38.8556 35.1942 39.0838 35.3085 39.2466 35.4942C39.4032 35.6784 39.4814 35.9175 39.4641 36.1594C39.4469 36.4013 39.3356 36.6266 39.1544 36.7864L39.1467 36.7786ZM18.9934 22.6196C19.0073 22.3705 19.1184 22.1371 19.3026 21.9703C19.4867 21.8036 19.7289 21.7171 19.9761 21.7298C20.2053 21.7429 20.4216 21.8411 20.5832 22.0054C20.7448 22.1697 20.8403 22.3885 20.8513 22.6196V30.968C20.8513 31.2163 20.7535 31.4544 20.5793 31.63C20.405 31.8056 20.1688 31.9042 19.9224 31.9042C19.676 31.9042 19.4397 31.8056 19.2655 31.63C19.0913 31.4544 18.9934 31.2163 18.9934 30.968V22.6196ZM23.6536 20.7626C23.6675 20.5136 23.7787 20.2801 23.9628 20.1134C24.1469 19.9467 24.3891 19.8602 24.6363 19.8729C24.8656 19.886 25.0818 19.9841 25.2434 20.1484C25.405 20.3128 25.5005 20.5316 25.5116 20.7626V33.1421C25.5116 33.3904 25.4137 33.6286 25.2395 33.8042C25.0652 33.9797 24.829 34.0784 24.5826 34.0784C24.3362 34.0784 24.0999 33.9797 23.9257 33.8042C23.7515 33.6286 23.6536 33.3904 23.6536 33.1421V20.7626ZM28.3369 20.2984C28.3369 20.0501 28.4348 19.812 28.609 19.6364C28.7832 19.4608 29.0195 19.3622 29.2659 19.3622C29.5122 19.3622 29.7485 19.4608 29.9228 19.6364C30.097 19.812 30.1948 20.0501 30.1948 20.2984V33.7611C30.1948 34.0094 30.097 34.2476 29.9228 34.4231C29.7485 34.5987 29.5122 34.6973 29.2659 34.6973C29.0195 34.6973 28.7832 34.5987 28.609 34.4231C28.4348 34.2476 28.3369 34.0094 28.3369 33.7611V20.2984ZM32.9434 20.7626C32.9434 20.5143 33.0412 20.2762 33.2155 20.1006C33.3897 19.9251 33.626 19.8264 33.8724 19.8264C34.1187 19.8264 34.355 19.9251 34.5292 20.1006C34.7035 20.2762 34.8013 20.5143 34.8013 20.7626V33.1421C34.8013 33.3904 34.7035 33.6286 34.5292 33.8042C34.355 33.9797 34.1187 34.0784 33.8724 34.0784C33.626 34.0784 33.3897 33.9797 33.2155 33.8042C33.0412 33.6286 32.9434 33.3904 32.9434 33.1421V20.7626ZM39.7226 15.6561H18.7784C18.3221 15.653 17.8696 15.7407 17.4469 15.9141C17.0242 16.0875 16.6396 16.3433 16.3151 16.6667C15.9907 16.9901 15.7326 17.3748 15.5559 17.7989C15.3792 18.2229 15.2872 18.6779 15.2852 19.1378V40.0283C15.2872 40.4882 15.3792 40.9432 15.5559 41.3672C15.7326 41.7913 15.9907 42.176 16.3151 42.4994C16.6396 42.8228 17.0242 43.0786 17.4469 43.252C17.8696 43.4254 18.3221 43.5131 18.7784 43.51H39.7226C40.1783 43.5131 40.6302 43.4256 41.0523 43.2527C41.4745 43.0798 41.8588 42.8247 42.1831 42.5021C42.5076 42.1795 42.7657 41.7957 42.9429 41.3726C43.12 40.9494 43.2128 40.4953 43.2158 40.036V19.1378C43.2138 18.6786 43.1221 18.2242 42.9458 17.8007C42.7695 17.3771 42.5123 16.9928 42.1886 16.6694C41.8649 16.3461 41.4812 16.0902 41.0594 15.9163C40.6376 15.7425 40.186 15.654 39.7302 15.6561" fill="white"/>
</svg>
