<svg width="15" height="15" viewBox="0 0 15 15" fill="none" xmlns="http://www.w3.org/2000/svg">
<path d="M5.3977 7.57031C5.41259 7.72442 5.47481 7.87015 5.57582 7.98749L8.27582 11.1375C8.3387 11.2159 8.4167 11.2809 8.50521 11.3287C8.59371 11.3764 8.6909 11.4058 8.791 11.4152C8.8911 11.4246 8.99206 11.4137 9.08789 11.3833C9.18373 11.3529 9.27247 11.3036 9.34885 11.2382C9.42523 11.1728 9.48769 11.0928 9.53251 11.0028C9.57733 10.9128 9.6036 10.8147 9.60976 10.7143C9.61592 10.614 9.60185 10.5134 9.56837 10.4186C9.53489 10.3238 9.48269 10.2367 9.41488 10.1625L7.13207 7.49999L9.41488 4.83749C9.48269 4.76326 9.53489 4.67616 9.56837 4.58135C9.60185 4.48655 9.61592 4.38599 9.60976 4.28564C9.6036 4.18529 9.57733 4.0872 9.53251 3.9972C9.48769 3.90721 9.42523 3.82714 9.34885 3.76177C9.27247 3.69639 9.18373 3.64703 9.08789 3.61663C8.99206 3.58623 8.8911 3.57541 8.791 3.58481C8.6909 3.5942 8.59371 3.62363 8.50521 3.67133C8.4167 3.71903 8.3387 3.78404 8.27582 3.86249L5.57582 7.01249C5.51024 7.08877 5.46068 7.17747 5.43008 7.2733C5.39948 7.36913 5.38846 7.47014 5.3977 7.57031Z" fill="white"/>
</svg>
