<svg width="59" height="59" viewBox="0 0 59 59" fill="none" xmlns="http://www.w3.org/2000/svg">
<circle cx="29.5" cy="29.5" r="29.5" fill="#132437"/>
<mask id="mask0" mask-type="alpha" maskUnits="userSpaceOnUse" x="11" y="15" width="37" height="21">
<path d="M11 15H47.9023V35.1912H11V15Z" fill="white"/>
</mask>
<g mask="url(#mask0)">
<path fill-rule="evenodd" clip-rule="evenodd" d="M46.6312 29.3101C46.5472 29.3101 46.4655 29.3191 46.386 29.3345L39.4163 17.1163C39.6255 16.8841 39.7413 16.5827 39.7414 16.2701C39.7415 16.0605 39.6898 15.8541 39.5909 15.6694C39.492 15.4846 39.3489 15.3271 39.1744 15.211C38.9999 15.0949 38.7994 15.0238 38.5907 15.0039C38.3821 14.984 38.1717 15.0161 37.9785 15.0972C37.7852 15.1782 37.615 15.3059 37.483 15.4687C37.3509 15.6315 37.2612 15.8244 37.2218 16.0302C37.1824 16.2361 37.1945 16.4485 37.257 16.6485C37.3196 16.8486 37.4306 17.0301 37.5802 17.1768L30.0167 32.6579C29.835 32.6356 29.6506 32.653 29.4763 32.7089C29.302 32.7648 29.1419 32.8579 29.007 32.9817L22.2866 29.2952C22.3001 29.2216 22.3082 29.1462 22.3082 29.0681C22.3085 28.8953 22.2736 28.7244 22.2056 28.5656C22.1376 28.4068 22.038 28.2636 21.9128 28.1446C21.7876 28.0256 21.6395 27.9334 21.4774 27.8735C21.3154 27.8137 21.1429 27.7875 20.9704 27.7966C20.7979 27.8056 20.6291 27.8498 20.4742 27.9262C20.3194 28.0027 20.1817 28.11 20.0697 28.2414C19.9576 28.3729 19.8736 28.5258 19.8226 28.6908C19.7716 28.8558 19.7548 29.0295 19.7732 29.2013L13.1999 32.186C13.0814 32.058 12.9377 31.9559 12.7779 31.8861C12.6181 31.8162 12.4455 31.7801 12.2711 31.7801C12.0141 31.7801 11.7631 31.858 11.5513 32.0036C11.3395 32.1491 11.1767 32.3555 11.0846 32.5954C10.9924 32.8353 10.9751 33.0975 11.035 33.3474C11.0949 33.5974 11.2291 33.8233 11.42 33.9954C11.6109 34.1674 11.8495 34.2776 12.1043 34.3113C12.3591 34.3451 12.6181 34.3008 12.8472 34.1843C13.0763 34.0678 13.2647 33.8846 13.3876 33.6589C13.5105 33.4331 13.562 33.1754 13.5354 32.9198L20.1092 29.935C20.3376 30.1807 20.6542 30.3257 20.9894 30.3383C21.3247 30.3508 21.6512 30.2298 21.8973 30.0019L28.6142 33.6866C28.5736 33.9028 28.5899 34.126 28.6614 34.3341C28.733 34.5422 28.8573 34.7282 29.0223 34.8738C29.1872 35.0195 29.3872 35.1198 29.6026 35.165C29.818 35.2101 30.0414 35.1986 30.251 35.1315C30.4606 35.0645 30.6492 34.9441 30.7983 34.7823C30.9474 34.6204 31.052 34.4227 31.1017 34.2083C31.1515 33.9939 31.1447 33.7703 31.0821 33.5593C31.0195 33.3484 30.9032 33.1572 30.7446 33.0047L38.3063 17.529C38.4427 17.5479 38.5813 17.5438 38.7164 17.5169L45.6856 29.7341C45.4763 29.9666 45.3604 30.2684 45.3605 30.5812C45.3605 30.8326 45.4351 31.0784 45.5747 31.2874C45.7144 31.4965 45.9129 31.6594 46.1452 31.7556C46.3775 31.8518 46.633 31.877 46.8796 31.8279C47.1262 31.7789 47.3527 31.6578 47.5305 31.48C47.7082 31.3023 47.8293 31.0758 47.8783 30.8292C47.9274 30.5826 47.9022 30.327 47.806 30.0948C47.7098 29.8625 47.5469 29.664 47.3378 29.5243C47.1288 29.3846 46.883 29.3101 46.6316 29.3101" fill="#2CDDE9"/>
</g>
<mask id="mask1" mask-type="alpha" maskUnits="userSpaceOnUse" x="11" y="21" width="38" height="20">
<path d="M11.1137 21.7037H48.0007V40.1515H11.1133L11.1137 21.7037Z" fill="white"/>
</mask>
<g mask="url(#mask1)">
<path fill-rule="evenodd" clip-rule="evenodd" d="M46.7296 37.597C46.6695 37.597 46.6113 37.6029 46.5535 37.6106L39.4844 23.8653C39.6309 23.7166 39.7385 23.5342 39.7978 23.3341C39.8571 23.134 39.8662 22.9224 39.8243 22.718C39.7825 22.5136 39.6909 22.3226 39.5577 22.1619C39.4246 22.0012 39.2539 21.8758 39.0608 21.7967C38.8677 21.7176 38.6581 21.6873 38.4505 21.7084C38.2429 21.7295 38.0436 21.8014 37.8704 21.9178C37.6971 22.0341 37.5552 22.1913 37.4571 22.3755C37.359 22.5597 37.3078 22.7652 37.3079 22.9739C37.3079 23.0371 37.3138 23.0976 37.3224 23.1577L30.7563 26.4974C30.5187 26.261 30.197 26.1285 29.8618 26.1289C29.5064 26.1289 29.1858 26.2747 28.9555 26.5096L22.4202 23.2611C22.4461 23.0877 22.4359 22.9109 22.3902 22.7417C22.3444 22.5725 22.2642 22.4145 22.1545 22.2778C22.0448 22.1411 21.9081 22.0285 21.7528 21.9472C21.5975 21.8659 21.4271 21.8175 21.2523 21.8052C21.0774 21.7929 20.9019 21.8169 20.7368 21.8757C20.5716 21.9345 20.4204 22.0268 20.2927 22.1468C20.1649 22.2668 20.0634 22.4119 19.9944 22.5731C19.9255 22.7342 19.8906 22.9079 19.8919 23.0832C19.8919 23.4051 20.0125 23.6977 20.2094 23.9217L12.6124 37.6309C12.3555 37.584 12.0903 37.6175 11.853 37.7267C11.6157 37.8359 11.4178 38.0156 11.2862 38.2412C11.1547 38.4669 11.0959 38.7276 11.1178 38.9879C11.1397 39.2482 11.2412 39.4955 11.4086 39.696C11.576 39.8965 11.8012 40.0406 12.0534 40.1086C12.3056 40.1767 12.5726 40.1654 12.8182 40.0762C13.0637 39.9871 13.2758 39.8245 13.4256 39.6105C13.5755 39.3965 13.6557 39.1416 13.6555 38.8803C13.6555 38.548 13.5273 38.2468 13.3191 38.0206L20.9061 24.3286C21.112 24.3709 21.3252 24.3615 21.5266 24.3013C21.728 24.2411 21.9114 24.1319 22.0603 23.9836L28.602 27.2352C28.5779 27.4083 28.5897 27.5845 28.6368 27.7528C28.6838 27.9211 28.7651 28.0779 28.8755 28.2134C28.9859 28.3489 29.1231 28.4602 29.2784 28.5403C29.4337 28.6204 29.6039 28.6676 29.7783 28.679C29.9527 28.6903 30.1276 28.6656 30.292 28.6063C30.4564 28.5471 30.6068 28.4545 30.7339 28.3345C30.8609 28.2145 30.9619 28.0695 31.0304 27.9088C31.0989 27.748 31.1335 27.5748 31.132 27.4C31.132 27.3382 31.1262 27.2781 31.118 27.2189L37.6854 23.8779C37.923 24.1137 38.2443 24.2458 38.5791 24.2455C38.6423 24.2455 38.7041 24.2391 38.7646 24.2301L45.831 37.9695C45.6231 38.1776 45.4938 38.4512 45.465 38.7439C45.4363 39.0366 45.5099 39.3302 45.6734 39.5746C45.8368 39.8191 46.08 39.9994 46.3614 40.0846C46.6429 40.1699 46.9452 40.155 47.2169 40.0424C47.4885 39.9297 47.7127 39.7264 47.8513 39.467C47.9898 39.2076 48.0342 38.9082 47.9767 38.6197C47.9192 38.3313 47.7635 38.0718 47.5361 37.8853C47.3087 37.6988 47.0237 37.5969 46.7296 37.597Z" fill="white"/>
</g>
</svg>
