<svg width="59" height="59" viewBox="0 0 59 59" fill="none" xmlns="http://www.w3.org/2000/svg">
<circle cx="29.5" cy="29.5" r="29.5" fill="white"/>
<path d="M24.6638 11.0517C23.8929 11.2966 23.4214 11.9586 23.2037 13.0921C23.0224 14.0353 23.0224 16.3114 23.2128 17.4087C23.6028 19.7393 24.7907 22.1425 26.4049 23.8564C26.9671 24.4458 31.6918 28.4994 32.2541 28.8712C32.6803 29.1433 32.9523 29.0073 34.5212 27.6923C36.0084 26.4409 36.5434 26.1054 37.4049 25.8787C38.3934 25.6157 39.8806 25.7517 40.7331 26.187C41.5039 26.5769 43.1997 28.0188 43.4445 28.4904C43.6712 28.9347 43.644 29.7237 43.372 30.1771C43.0909 30.6487 40.2343 33.0427 39.5451 33.3873C38.0216 34.131 36.1626 34.0221 34.8114 33.0971C34.5484 32.9158 31.2021 30.1408 27.3752 26.9215C23.5483 23.7022 20.2746 20.9908 20.0933 20.9001C19.3859 20.5373 18.3521 20.7731 17.8715 21.4079C17.0281 22.5324 16.9374 25.9603 17.6811 28.5357C18.1798 30.2769 19.2318 32.145 20.4288 33.469C20.7371 33.7954 21.6349 34.6297 22.4329 35.3098C23.2309 35.99 23.8839 36.5794 23.8839 36.6157C23.8839 36.652 22.4239 37.9125 20.6374 39.4088C17.3092 42.2019 17.1369 42.3742 17.0191 43.0906C16.7379 44.8317 19.6036 46.3371 23.2037 46.3552C25.353 46.3552 27.6563 45.5844 29.8328 44.1244C30.5038 43.671 46.6003 30.2043 46.7817 29.9413C46.8452 29.8506 46.9268 29.6421 46.9631 29.4788C47.1082 28.7987 47.344 29.0163 36.5253 19.9388C30.9663 15.2776 26.2689 11.3691 26.0694 11.2512C25.6704 11.0245 25.0446 10.9338 24.6638 11.0517Z" fill="#742DDD"/>
</svg>
