<svg width="59" height="59" viewBox="0 0 59 59" fill="none" xmlns="http://www.w3.org/2000/svg">
<rect width="59" height="59" rx="29.5" fill="#4A154B"/>
<path d="M19.3534 34.117C19.3534 36.1406 17.7003 37.7937 15.6767 37.7937C13.6531 37.7937 12 36.1406 12 34.117C12 32.0934 13.6531 30.4403 15.6767 30.4403H19.3534V34.117Z" fill="#E01E5A"/>
<path d="M21.207 34.1169C21.207 32.0933 22.8601 30.4402 24.8837 30.4402C26.9073 30.4402 28.5604 32.0933 28.5604 34.1169V43.3229C28.5604 45.3465 26.9073 46.9996 24.8837 46.9996C22.8601 46.9996 21.207 45.3465 21.207 43.3229V34.1169Z" fill="#E01E5A"/>
<path d="M24.8837 19.3534C22.8601 19.3534 21.207 17.7003 21.207 15.6767C21.207 13.6531 22.8601 12 24.8837 12C26.9073 12 28.5604 13.6531 28.5604 15.6767V19.3534H24.8837Z" fill="#36C5F0"/>
<path d="M24.8827 21.2061C26.9063 21.2061 28.5594 22.8591 28.5594 24.8827C28.5594 26.9064 26.9063 28.5594 24.8827 28.5594H15.6767C13.6531 28.5594 12 26.9064 12 24.8827C12 22.8591 13.6531 21.2061 15.6767 21.2061H24.8827Z" fill="#36C5F0"/>
<path d="M39.6465 24.8827C39.6465 22.8591 41.2996 21.2061 43.3232 21.2061C45.3468 21.2061 46.9999 22.8591 46.9999 24.8827C46.9999 26.9064 45.3468 28.5594 43.3232 28.5594H39.6465V24.8827Z" fill="#2EB67D"/>
<path d="M37.7928 24.8827C37.7928 26.9063 36.1398 28.5594 34.1161 28.5594C32.0925 28.5594 30.4395 26.9063 30.4395 24.8827V15.6767C30.4395 13.6531 32.0925 12 34.1161 12C36.1398 12 37.7928 13.6531 37.7928 15.6767V24.8827Z" fill="#2EB67D"/>
<path d="M34.1161 39.6465C36.1398 39.6465 37.7928 41.2996 37.7928 43.3232C37.7928 45.3468 36.1398 46.9999 34.1161 46.9999C32.0925 46.9999 30.4395 45.3468 30.4395 43.3232V39.6465H34.1161Z" fill="#ECB22E"/>
<path d="M34.1162 37.7937C32.0925 37.7937 30.4395 36.1406 30.4395 34.117C30.4395 32.0934 32.0925 30.4403 34.1162 30.4403H43.3222C45.3458 30.4403 46.9989 32.0934 46.9989 34.117C46.9989 36.1406 45.3458 37.7937 43.3222 37.7937H34.1162Z" fill="#ECB22E"/>
</svg>
